<svg xmlns="http://www.w3.org/2000/svg" width="256" height="256"><path fill-opacity=".016" d="M0 128.004v128.004l128.25-.254 128.25-.254.254-127.75L257.008 0H0v128.004m.485.496c0 70.4.119 99.053.265 63.672.146-35.38.146-92.98 0-128C.604 29.153.485 58.1.485 128.5" fill="#1976D2" fill-rule="evenodd"/><path fill-opacity=".195" d="M68.675 1.25c-1.793 1.312-2.469 4.787-8.618 44.25-1.714 11-4.222 26.975-5.573 35.5-3.493 22.028-8.926 56.63-12.014 76.5a4132.523 4132.523 0 01-5.056 31.636c-1.328 8.05-2.414 15.09-2.414 15.646 0 .857 71.783 41.61 84.926 48.214 8.479 4.261 9.186 3.98 57.285-22.768l43.289-24.073-.135-3.328c-.24-5.917-23.329-145.891-24.393-147.879-.566-1.058-2.189-2.215-3.605-2.571-2.304-.578-4.287 1.063-18.831 15.588l-16.257 16.233-5.001-9.349a4112.936 4112.936 0 01-12.168-23c-3.942-7.509-7.802-14.179-8.578-14.823-.776-.644-2.676-1.025-4.222-.848-2.49.285-3.625 1.844-9.964 13.684-6.976 13.03-7.19 13.303-8.622 11-.808-1.299-8.112-14.737-16.232-29.862C84.373 15.875 77.046 2.712 76.21 1.75c-1.78-2.049-5.117-2.27-7.535-.5" fill="#1976D2" fill-rule="evenodd"/><path fill-opacity=".148" d="M69.13 2.75c-2.021 1.692-2.288 2.826-4.641 19.75-.23 1.65-1.088 6.6-1.907 11-.82 4.4-1.985 11.825-2.59 16.5-.605 4.675-1.3 9.625-1.545 11-1.697 9.534-4.413 26.404-4.99 31-.38 3.025-.876 6.4-1.101 7.5-.517 2.52-6.931 42.662-8.948 56-.831 5.5-2.839 18.072-4.46 27.937C37.327 193.303 36 202.076 36 202.934c0 .858 27-25.437 60-58.434s60-60.349 60-60.783c0-1.724-22.539-43.33-24.36-44.967-1.07-.962-2.665-1.743-3.543-1.735-3.505.034-3.917.639-14.804 21.735-1.49 2.888-2.972 5.25-3.293 5.25-.321 0-1.785-2.362-3.254-5.25s-4.309-8.175-6.312-11.75c-4.997-8.922-15.2-28.008-20.638-38.609C76.101 1.188 72.973-.466 69.13 2.75m143.311 206.805c-1.864 1.494-1.852 1.512.309.465 1.238-.6 2.25-1.3 2.25-1.555 0-.765-.519-.544-2.559 1.09m-9 5c-1.864 1.494-1.852 1.512.309.465 1.238-.6 2.25-1.3 2.25-1.555 0-.765-.519-.544-2.559 1.09M59 218.43c0 .275.9.981 2 1.57 1.1.589 2 .845 2 .57s-.9-.981-2-1.57c-1.1-.589-2-.845-2-.57m135.441 1.125c-1.864 1.494-1.852 1.512.309.465 1.238-.6 2.25-1.3 2.25-1.555 0-.765-.519-.544-2.559 1.09m-9.691 5.017c-3.738 2.028-3.511 2.873.25.928 1.65-.853 3-1.765 3-2.026 0-.643-.107-.607-3.25 1.098M80 230.393c0 .216.698.661 1.552.989.89.341 1.291.173.941-.393-.587-.951-2.493-1.406-2.493-.596m93.507.596c-.35.566.051.734.941.393 1.732-.665 2.049-1.382.611-1.382-.518 0-1.216.445-1.552.989m-11 6c-.35.566.051.734.941.393 1.732-.665 2.049-1.382.611-1.382-.518 0-1.216.445-1.552.989m-9 5c-.35.566.051.734.941.393 1.732-.665 2.049-1.382.611-1.382-.518 0-1.216.445-1.552.989M102 242.43c0 .275.9.981 2 1.57 1.1.589 2 .845 2 .57s-.9-.981-2-1.57c-1.1-.589-2-.845-2-.57m9 5c0 .275.9.981 2 1.57 1.1.589 2 .845 2 .57s-.9-.981-2-1.57c-1.1-.589-2-.845-2-.57m31.507.559c-.35.566.051.734.941.393 1.732-.665 2.049-1.382.611-1.382-.518 0-1.216.445-1.552.989m-21.024 4.984c.267.432 1.393 1.023 2.503 1.313 1.109.29 1.798.174 1.531-.259-.267-.432-1.393-1.023-2.503-1.313-1.109-.29-1.798-.174-1.531.259M132.5 253c-1.319.567-1.489.878-.5.914.825.031 2.175-.381 3-.914 1.828-1.181.249-1.181-2.5 0" fill="#1976D2" fill-rule="evenodd"/><path fill-opacity=".163" d="M107.652 67.25c-1.132 1.828-23.761 44.567-45.666 86.25-2.313 4.4-6.352 12.05-8.976 17-12.054 22.735-14.812 28.169-15.483 30.5-.439 1.527 18.183-16.364 47.841-45.961 41.894-41.807 48.382-48.671 47.26-50-.715-.846-5.917-10.201-11.56-20.789C115.426 73.662 110.412 65 109.928 65c-.485 0-1.509 1.013-2.276 2.25" fill="#1976D2" fill-rule="evenodd"/></svg>